<?xml version="1.0" encoding="UTF-8" standalone="no"?>
<svg
   class="heart"
   viewBox="0 0 487.015 487.015"
   aria-label="Human Heart"
   role="img"
   version="1.1"
   id="svg11"
   sodipodi:docname="heart.svg"
   inkscape:version="1.4.3 (1:1.4.3+202512261035+0d15f75042)"
   xmlns:inkscape="http://www.inkscape.org/namespaces/inkscape"
   xmlns:sodipodi="http://sodipodi.sourceforge.net/DTD/sodipodi-0.dtd"
   xmlns="http://www.w3.org/2000/svg"
   xmlns:svg="http://www.w3.org/2000/svg">
  <sodipodi:namedview
     id="namedview11"
     pagecolor="#ffffff"
     bordercolor="#000000"
     borderopacity="0.25"
     inkscape:showpageshadow="2"
     inkscape:pageopacity="0.0"
     inkscape:pagecheckerboard="0"
     inkscape:deskcolor="#d1d1d1"
     inkscape:zoom="1.6960463"
     inkscape:cx="297.75131"
     inkscape:cy="300.10974"
     inkscape:window-width="1854"
     inkscape:window-height="1043"
     inkscape:window-x="0"
     inkscape:window-y="0"
     inkscape:window-maximized="1"
     inkscape:current-layer="ventricles" />
  <defs
     id="defs1">
    <style
       id="style1">
      /* Only the pulse layers will be scaled */
      .pulse {
        transform-box: fill-box;
        transform-origin: center;
      }

      /* Optional: keep stroke from “inflating” when scaling */
      .pulse * {
        vector-effect: non-scaling-stroke;
      }
    </style>
  </defs>
  <!-- =========================================================
       1) MYOCARDIUM / BODY BASE (STATIC)
       This prevents "white holes" when chambers shrink.
       ========================================================= -->
  <g
     id="heartBody">
    <!-- Tissue fill (behind everything) -->
    <path
       id="myocardium"
       d="M400.04,195.19c-19.858-35.607-42.931-61.026-69.871-76.828c-1.737-3.451-10.581-20.149-28.275-38.755       c-7.194-7.563-16.52-16.174-28.11-24.659c18.287-11.166,36.825-18.339,37.029-18.417c1.087-0.418,1.957-1.264,2.403-2.341       c0.446-1.076,0.431-2.288-0.042-3.354C303.665,9.444,289.383,0.93,288.78,0.579c-1.049-0.611-2.306-0.745-3.459-0.369       c-22.565,7.358-42.18,17.01-58.349,28.688c-6.521-2.64-13.41-5.065-20.674-7.207c-0.854-0.252-1.766-0.23-2.606,0.065       c-1.03,0.36-25.26,9.145-27.744,36.47c-0.178,1.953,1.003,3.773,2.859,4.407c0.143,0.049,4.704,1.626,11.704,4.575       c-13.805,22.319-14.553,40.309-14.578,41.097c-0.013,0.417,0.053,0.815,0.152,1.199c-6.916,1.755-14.1,3.72-21.582,5.9       c-17.685,5.154-31.067,12.458-44.819,21.743c-3.633-40.916,5.464-87.316,5.58-87.896c0.275-1.379-0.149-2.805-1.133-3.809       c-0.984-1.003-2.4-1.455-3.785-1.207l-44.168,7.928c-1.774,0.318-3.154,1.721-3.444,3.499       c-10.085,61.854-4.865,102.437,1.32,125.652c-20.843,37.505-18.558,83.973,6.293,127.549       c30.842,54.074,81.526,106.047,135.58,139.027c30.26,18.463,60.553,30.557,90.039,35.945       c11.604,2.12,22.994,3.18,34.138,3.179c20.38,0,39.932-3.542,58.415-10.607c15.988-6.11,28.387-21.022,36.853-44.322       C448.207,369.246,436.606,260.76,400.04,195.19z       M285.985,8.942c3.247,2.388,11.144,9.058,17.518,21.384c-7.228,3.036-22.485,9.893-37.29,19.329       C257.351,43.733,247.342,38,236.136,32.86C250.274,23.33,267,15.3,285.985,8.942z       M205.307,30.265c35.274,10.661,61.199,28.238,78.837,43.982h-24.158c-2.347,0-4.25,1.902-4.25,4.25       c0,2.347,1.903,4.25,4.25,4.25h33.107c0.822,0.831,1.628,1.655,2.399,2.463c9.601,10.059,16.428,19.349,20.813,26.03       c-8.335-3.716-17.011-6.616-26.057-8.687c-10.683-2.445-21.777-3.816-33.638-4.098       c-23.658-23.543-60.533-38.489-71.762-42.68C187.835,39.174,201.18,32.085,205.307,30.265z       M238.554,98.836c-0.289-1.632-0.365-3.27-0.221-4.933c1.985,1.503,3.928,3.053,5.812,4.65       C242.301,98.624,240.439,98.716,238.554,98.836z       M198.371,70.664c9.468,4.339,21.172,10.346,32.309,17.799c-0.943,3.727-1.165,7.434-0.634,11.067       c-13.881,1.37-28.917,3.995-45.529,7.914C184.914,103.338,187.084,88.475,198.371,70.664z       M105.819,53.684c-3.177,18.635-11.192,75.236,0.9,113.908c-1.073,5.093-6.987,27.941-27.227,31.407       c-4.205-8.559-17.481-41.17-12.904-103.995h23c2.347,0,4.25-1.903,4.25-4.25c0-2.348-1.903-4.25-4.25-4.25h-22.29       c0.79-8.339,1.888-17.169,3.351-26.508L105.819,53.684z       M64.631,275.04h31.087c2.347,0,4.25-1.902,4.25-4.25c0-2.347-1.903-4.25-4.25-4.25H62.209       c-1.597-6.395-2.685-12.767-3.267-19.077h81.602c2.347,0,4.25-1.902,4.25-4.25c0-2.347-1.903-4.25-4.25-4.25H58.455       c-0.316-16.092,2.76-31.644,9.241-45.967c2.974,8.188,5.497,12.317,5.832,12.848c0.783,1.239,2.143,1.98,3.592,1.98       c0.113,0,0.226-0.004,0.34-0.014c25.013-2,35.682-26.894,37.829-39.777c0.112-0.674,0.061-1.363-0.15-2.013       c-1.947-5.989-3.357-12.519-4.347-19.326c14.427-10.039,27.909-17.83,46.089-23.129c1.636-0.477,3.264-0.944,4.885-1.404       c4.559,1.641,40.912,15.545,52.586,44.785c6.953,17.416,4.484,37.447-7.339,59.539       c-12.955,24.204-27.621,43.909-40.561,61.295c-14.948,20.084-27.857,37.429-33.163,55.235       c-3.579,12.012-3.469,23.642,0.452,35.506c-22.03-22.869-41.325-48.122-56.01-73.868       C72.154,294.875,67.795,284.953,64.631,275.04z       M262.967,175.485c-24.468-27.47-45.689-53.185-54.714-64.293c77.134-13.7,136.732,2.73,184.363,88.138       c34.928,62.633,46.502,170.042,24.769,229.854c-7.479,20.583-18.509,34.168-31.898,39.285       c-59.766,22.843-119.475,3.166-162.571-20.549h50.133c2.347,0,4.25-1.903,4.25-4.25c0-2.348-1.903-4.25-4.25-4.25h-64.645       c-9.499-5.888-18.885-12.362-28.064-19.342h36.409c2.347,0,4.25-1.902,4.25-4.25c0-2.347-1.903-4.25-4.25-4.25h-47.177       c-5.556-4.542-11.024-9.251-16.373-14.122c-27.889-39.1-8.979-65.568,20.073-104.602       c13.117-17.623,27.983-37.598,41.236-62.359c13.073-24.428,15.67-46.886,7.719-66.752       c-9.938-24.83-33.659-38.971-47.033-45.232c8.034-2.085,15.895-3.935,23.584-5.509       c9.065,11.268,53.892,66.501,93.643,106.849c-1.679,8.485-12.561,60.747-33.384,103.088       l-36.948,10.176c-2.263,0.624-3.592,2.964-2.969,5.227c0.52,1.886,2.23,3.122,4.095,3.122c0.374,0,0.753-0.05,1.131-0.153       l29.299-8.069c-10.698,19.19-23.656,35.125-38.964,41.998c-2.141,0.961-3.098,3.477-2.136,5.618       c0.708,1.576,2.257,2.51,3.879,2.51c0.582,0,1.173-0.12,1.738-0.374c26.237-11.779,45.673-46.145,59.106-80.299       l9.912,26.927c0.633,1.718,2.259,2.782,3.989,2.782c0.488,0,0.983-0.084,1.468-0.263c2.202-0.811,3.331-3.254,2.52-5.456       l-13.323-36.192c9.522-26.785,15.322-51.706,17.8-63.434c13.705,13.47,26.469,24.648,36.522,30.983       l5.209,25.655c0.409,2.016,2.181,3.405,4.161,3.405c0.28,0,0.565-0.027,0.85-0.086c2.3-0.467,3.787-2.71,3.319-5.011       l-4.698-23.137l35.199-5.8c2.315-0.382,3.884-2.568,3.502-4.885c-0.381-2.315-2.57-3.884-4.885-3.502l-37.981,6.258       c-17.566-10.986-44.642-38.483-70.104-66.64l75.694,4.264c0.082,0.005,0.163,0.007,0.243,0.007c2.238,0,4.112-1.749,4.239-4.011       c0.132-2.344-1.661-4.351-4.004-4.482l-10.767-0.606l9.025-9.153c1.648-1.672,1.629-4.362-0.043-6.011       c-1.672-1.648-4.362-1.629-6.01,0.043l-14.281,14.484l-61.858-3.286V175.485z"
       fill="#fa8067ff"
       stroke="none" />
    <!-- Outline on top of tissue -->
    <path
       id="outline"
       d="M400.04,195.19c-19.858-35.607-42.931-61.026-69.871-76.828c-1.737-3.451-10.581-20.149-28.275-38.755       c-7.194-7.563-16.52-16.174-28.11-24.659c18.287-11.166,36.825-18.339,37.029-18.417c1.087-0.418,1.957-1.264,2.403-2.341       c0.446-1.076,0.431-2.288-0.042-3.354C303.665,9.444,289.383,0.93,288.78,0.579c-1.049-0.611-2.306-0.745-3.459-0.369       c-22.565,7.358-42.18,17.01-58.349,28.688c-6.521-2.64-13.41-5.065-20.674-7.207c-0.854-0.252-1.766-0.23-2.606,0.065       c-1.03,0.36-25.26,9.145-27.744,36.47c-0.178,1.953,1.003,3.773,2.859,4.407c0.143,0.049,4.704,1.626,11.704,4.575       c-13.805,22.319-14.553,40.309-14.578,41.097c-0.013,0.417,0.053,0.815,0.152,1.199c-6.916,1.755-14.1,3.72-21.582,5.9       c-17.685,5.154-31.067,12.458-44.819,21.743c-3.633-40.916,5.464-87.316,5.58-87.896c0.275-1.379-0.149-2.805-1.133-3.809       c-0.984-1.003-2.4-1.455-3.785-1.207l-44.168,7.928c-1.774,0.318-3.154,1.721-3.444,3.499       c-10.085,61.854-4.865,102.437,1.32,125.652c-20.843,37.505-18.558,83.973,6.293,127.549       c30.842,54.074,81.526,106.047,135.58,139.027c30.26,18.463,60.553,30.557,90.039,35.945       c11.604,2.12,22.994,3.18,34.138,3.179c20.38,0,39.932-3.542,58.415-10.607c15.988-6.11,28.387-21.022,36.853-44.322       C448.207,369.246,436.606,260.76,400.04,195.19z"
       fill="none"
       stroke="#2a1b1b"
       stroke-width="3"
       stroke-linejoin="round" />
    <!-- Small extra outline detail from your original -->
    <path
       id="outlineDetail"
       d="M404.088,345.418c-0.007,0-0.012,0-0.018,0c-2.347,0.01-4.242,1.92-4.233,4.268       c0.211,52.302-13.749,90.179-36.432,98.848c-2.192,0.838-3.29,3.295-2.453,5.487c0.647,1.693,2.26,2.733,3.971,2.733       c0.504,0,1.017-0.09,1.516-0.281c26.464-10.114,42.127-50.048,41.897-106.821C408.328,347.309,406.427,345.418,404.088,345.418z"
       fill="none"
       stroke="#2a1b1b"
       stroke-width="3"
       stroke-linecap="round"
       opacity="0.6" />
  </g>
  <!-- =========================================================
       2) CHAMBERS (STATIC + PULSE)
       Base stays visible; Pulse scales to "contract"
       ========================================================= -->
  <!-- ===== ATRIA ===== -->
  <g
     id="atria">
    <!-- Base (static) -->
    <g
       id="atriaBase">
      <ellipse
         cx="185"
         cy="200"
         rx="55"
         ry="45"
         fill="#325aff"
         id="ellipse1" />
      <ellipse
         cx="300"
         cy="205"
         rx="50"
         ry="42"
         fill="#ff1e32"
         id="ellipse2" />
    </g>
    <!-- Pulse (animated) -->
    <g
       id="atriaPulse"
       class="pulse">
      <ellipse
         cx="185"
         cy="200"
         rx="55"
         ry="45"
         fill="#325aff"
         opacity="0.35"
         id="ellipse3" />
      <ellipse
         cx="300"
         cy="205"
         rx="50"
         ry="42"
         fill="#ff1e32"
         opacity="0.35"
         id="ellipse4" />
    </g>
  </g>
  <!-- ===== VENTRICLES ===== -->
  <g
     id="ventricles">
    <!-- Base (static) -->
    <g
       id="ventriclesBase"
       transform="matrix(0.90376954,0,0,0.90376954,28.337828,22.957097)">
      <path
         d="m 150,250 c -40,60 -30,130 30,180 35,25 80,25 100,10 -40,-60 -60,-120 -70,-170 -10,-25 -30,-35 -60,-20 z"
         fill="#0033ffff"
         id="path4" />
      <path
         d="m 260,260 c -10,80 20,160 70,180 40,15 80,-20 90,-60 10,-50 -10,-100 -40,-125 -40,-25 -80,-20 -120,5 z"
         fill="#ff1e31ff"
         id="path5" />
    </g>
    <!-- Pulse (animated) -->
    <g
       id="ventriclesPulse"
       class="pulse" />
  </g>
  <!-- =========================================================
       3) VESSELS / ACCENTS (STATIC)
       Keeping your red/blue accents as-is, but cleaned grouping.
       ========================================================= -->
  <g
     id="vessels"
     stroke="#2a1b1b"
     stroke-linejoin="round">
    <path
       d="m 129.47861,323.87602 c -11.1387,-25.13882 -18.17165,-58.86757 -20.68986,-99.22486 -1.00229,-16.06287 -0.48049,-61.39049 0.77503,-67.32558 l 0.22138,-1.04651 h 19.37918 c 18.61704,0 19.45702,-0.0377 21.35853,-0.95819 1.4708,-0.712 2.24018,-1.49698 2.9945,-3.0552 1.67029,-3.45035 0.76254,-6.75204 -2.53315,-9.21368 -1.24187,-0.9276 -1.92105,-0.96326 -20.75361,-1.08984 l -19.46972,-0.13086 0.19956,-1.49704 c 0.10976,-0.82338 0.63957,-5.57845 1.17737,-10.56682 0.9461,-8.77565 3.94095,-30.667259 4.23108,-30.928165 0.18903,-0.169984 56.8529,-10.349252 57.00377,-10.240327 0.0643,0.0464 -0.50648,4.043415 -1.26832,8.882246 -2.63056,16.707906 -4.8403,36.634896 -6.54599,59.030436 -0.79948,10.49709 -1.10553,46.60548 -0.48489,57.2093 1.27143,21.7231 3.93299,39.67361 8.22579,55.47767 l 1.71825,6.32579 -0.83397,3.28431 c -3.94733,15.54544 -12.72944,30.31189 -22.73639,38.22945 -5.53134,4.37645 -13.11955,8.02233 -19.24628,9.2472 -1.48801,0.29749 -1.54541,0.24669 -2.72226,-2.40933 z"
       transform="scale(0.60876875)"
       fill="#325aff"
       stroke-width="1.05349"
       id="path8" />
    <path
       d="m 514.37109,179.98533 c -4.72174,-2.47954 -23.93815,-8.62827 -35.76644,-11.44429 -14.83185,-3.5311 -28.37819,-5.54722 -44.20765,-6.57948 l -12.04843,-0.78569 -5.22917,-4.54142 C 389.43111,132.58777 358.53738,113.91181 318.60465,97.080061 302.67012,90.363615 303.23761,91.208176 307.51031,80.569204 311.94405,69.529236 322.79522,57.763725 333.62355,52.255617 l 3.8561,-1.961509 10.5625,3.559964 c 23.90537,8.057018 51.45814,21.095155 72.71218,34.407847 11.88419,7.443785 32.85727,22.808621 40.64102,29.773541 l 4.18605,3.74568 -21.09528,0.0397 -21.09527,0.0397 -1.92798,2.45103 c -2.53546,3.2233 -2.43642,6.15617 0.31597,9.35756 l 2.24395,2.61001 28.87114,0.27044 28.87113,0.27043 5.74459,6.24119 c 11.45824,12.44879 30.55255,36.86917 29.57931,37.83001 -0.18963,0.18721 -1.41267,-0.22041 -2.71787,-0.90581 z"
       transform="scale(0.60876875)"
       fill="#ff1e32"
       stroke-width="2.10698"
       id="path9" />
    <path
       d="m 430.69767,76.781771 c -8.52784,-5.649592 -27.7619,-16.503661 -34.87796,-19.682163 -3.30124,-1.474551 -6.01351,-2.954308 -6.02726,-3.288345 -0.0406,-0.98669 19.24571,-12.267955 31.32514,-18.323188 12.22572,-6.128568 29.20252,-13.412275 40.55139,-17.398122 8.80307,-3.091732 9.16549,-2.960404 18.26415,6.618111 5.32275,5.60347 17.74916,22.784781 17.7378,24.525076 -0.002,0.293866 -1.99029,1.32976 -4.4186,2.301986 -7.87731,3.153841 -36.71802,17.810072 -46.59469,23.678415 -5.29178,3.144181 -9.68713,5.684579 -9.76744,5.64533 -0.0803,-0.03925 -2.86694,-1.873944 -6.19253,-4.0771 z"
       transform="scale(0.60876875)"
       fill="#ff1e32"
       stroke-width="2.10698"
       id="path10" />
    <path
       d="m 304.49471,171.00827 c 1.13916,-9.69252 6.14634,-24.29342 13.28692,-38.74462 3.8721,-7.83639 7.61321,-14.46788 8.31359,-14.73664 1.58182,-0.60701 26.22318,12.01592 41.2181,21.11462 11.06268,6.71268 11.1758,6.81624 10.54388,9.65332 -0.35133,1.57731 -0.64083,5.50241 -0.64334,8.72244 -0.004,5.11886 -0.23836,5.89745 -1.86502,6.19563 -1.02326,0.18756 -8.71425,1.24861 -17.09108,2.35789 -13.76431,1.8227 -48.82649,8.42931 -52.77326,9.94383 -1.42403,0.54645 -1.52802,0.073 -0.98979,-4.50647 z"
       transform="scale(0.60876875)"
       fill="#ff1e32"
       stroke-width="2.10698"
       id="path11" />
  </g>
</svg>
